<?xml version="1.0" encoding="utf-8" standalone="no"?>
<!DOCTYPE svg PUBLIC "-//W3C//DTD SVG 1.1//EN"
  "http://www.w3.org/Graphics/SVG/1.1/DTD/svg11.dtd">
<svg xmlns:xlink="http://www.w3.org/1999/xlink" width="252pt" height="139.1048pt" viewBox="0 0 252 139.1048" xmlns="http://www.w3.org/2000/svg" version="1.1">
 <metadata>
  <rdf:RDF xmlns:dc="http://purl.org/dc/elements/1.1/" xmlns:cc="http://creativecommons.org/ns#" xmlns:rdf="http://www.w3.org/1999/02/22-rdf-syntax-ns#">
   <cc:Work>
    <dc:type rdf:resource="http://purl.org/dc/dcmitype/StillImage"/>
    <dc:format>image/svg+xml</dc:format>
    <dc:creator>
     <cc:Agent>
      <dc:title>Matplotlib v3.10.8, https://matplotlib.org/</dc:title>
     </cc:Agent>
    </dc:creator>
   </cc:Work>
  </rdf:RDF>
 </metadata>
 <defs>
  <style type="text/css">*{stroke-linejoin: round; stroke-linecap: butt}</style>
 </defs>
 <g id="figure_1">
  <g id="patch_1">
   <path d="M 0 139.1048 
L 252 139.1048 
L 252 0 
L 0 0 
z
" style="fill: #ffffff"/>
  </g>
  <g id="axes_1">
   <g id="patch_2">
    <path d="M 80.64 106.3528 
L 154.14 106.3528 
L 154.14 25.6336 
L 80.64 25.6336 
z
" style="fill: #ffffff"/>
   </g>
   <g id="matplotlib.axis_1">
    <g id="xtick_1">
     <g id="line2d_1">
      <path d="M 80.64 106.3528 
L 80.64 25.6336 
" clip-path="url(#p00f5803a24)" style="fill: none; stroke: #e6e6e6; stroke-width: 0.5; stroke-linecap: square"/>
     </g>
     <g id="line2d_2">
      <defs>
       <path id="m33e0a5b8f4" d="M 0 0 
L 0 3.5 
" style="stroke: #000000; stroke-width: 0.8"/>
      </defs>
      <g>
       <use xlink:href="#m33e0a5b8f4" x="80.64" y="106.3528" style="stroke: #000000; stroke-width: 0.8"/>
      </g>
     </g>
     <g id="text_1">
      <text style="font-size: 7px; font-family: 'DejaVu Sans'; text-anchor: middle" x="80.64" y="117.171706" transform="rotate(-0 80.64 117.171706)">0</text>
     </g>
    </g>
    <g id="xtick_2">
     <g id="line2d_3">
      <path d="M 115.093125 106.3528 
L 115.093125 25.6336 
" clip-path="url(#p00f5803a24)" style="fill: none; stroke: #e6e6e6; stroke-width: 0.5; stroke-linecap: square"/>
     </g>
     <g id="line2d_4">
      <g>
       <use xlink:href="#m33e0a5b8f4" x="115.093125" y="106.3528" style="stroke: #000000; stroke-width: 0.8"/>
      </g>
     </g>
     <g id="text_2">
      <text style="font-size: 7px; font-family: 'DejaVu Sans'; text-anchor: middle" x="115.093125" y="117.171706" transform="rotate(-0 115.093125 117.171706)">15</text>
     </g>
    </g>
    <g id="xtick_3">
     <g id="line2d_5">
      <path d="M 149.54625 106.3528 
L 149.54625 25.6336 
" clip-path="url(#p00f5803a24)" style="fill: none; stroke: #e6e6e6; stroke-width: 0.5; stroke-linecap: square"/>
     </g>
     <g id="line2d_6">
      <g>
       <use xlink:href="#m33e0a5b8f4" x="149.54625" y="106.3528" style="stroke: #000000; stroke-width: 0.8"/>
      </g>
     </g>
     <g id="text_3">
      <text style="font-size: 7px; font-family: 'DejaVu Sans'; text-anchor: middle" x="149.54625" y="117.171706" transform="rotate(-0 149.54625 117.171706)">30</text>
     </g>
    </g>
    <g id="text_4">
     <text style="font-size: 7.5px; font-family: 'DejaVu Sans'" transform="translate(97.666758 127.326316)">Core-cycle</text>
     <text style="font-size: 7.5px; font-family: 'DejaVu Sans'" transform="translate(100.632187 135.724675)">error (%)</text>
    </g>
   </g>
   <g id="matplotlib.axis_2">
    <g id="ytick_1">
     <g id="line2d_7">
      <defs>
       <path id="m479b5d17c0" d="M 0 0 
L -3.5 0 
" style="stroke: #000000; stroke-width: 0.8"/>
      </defs>
      <g>
       <use xlink:href="#m479b5d17c0" x="80.64" y="31.399257" style="stroke: #000000; stroke-width: 0.8"/>
      </g>
     </g>
     <g id="text_5">
      <text style="font-size: 7px; font-family: 'DejaVu Sans'; text-anchor: end" x="75.14" y="34.05871" transform="rotate(-0 75.14 34.05871)">Queued FixedLat</text>
     </g>
    </g>
    <g id="ytick_2">
     <g id="line2d_8">
      <g>
       <use xlink:href="#m479b5d17c0" x="80.64" y="42.930571" style="stroke: #000000; stroke-width: 0.8"/>
      </g>
     </g>
     <g id="text_6">
      <text style="font-size: 7px; font-family: 'DejaVu Sans'; text-anchor: end" x="75.14" y="45.590025" transform="rotate(-0 75.14 45.590025)">M/D/1</text>
     </g>
    </g>
    <g id="ytick_3">
     <g id="line2d_9">
      <g>
       <use xlink:href="#m479b5d17c0" x="80.64" y="54.461886" style="stroke: #000000; stroke-width: 0.8"/>
      </g>
     </g>
     <g id="text_7">
      <text style="font-size: 7px; font-family: 'DejaVu Sans'; text-anchor: end" x="75.14" y="57.121339" transform="rotate(-0 75.14 57.121339)">WMG1</text>
     </g>
    </g>
    <g id="ytick_4">
     <g id="line2d_10">
      <g>
       <use xlink:href="#m479b5d17c0" x="80.64" y="65.9932" style="stroke: #000000; stroke-width: 0.8"/>
      </g>
     </g>
     <g id="text_8">
      <text style="font-size: 7px; font-family: 'DejaVu Sans'; text-anchor: end" x="75.14" y="68.652653" transform="rotate(-0 75.14 68.652653)">MeSS</text>
     </g>
    </g>
    <g id="ytick_5">
     <g id="line2d_11">
      <g>
       <use xlink:href="#m479b5d17c0" x="80.64" y="77.524514" style="stroke: #000000; stroke-width: 0.8"/>
      </g>
     </g>
     <g id="text_9">
      <text style="font-size: 7px; font-family: 'DejaVu Sans'; text-anchor: end" x="75.14" y="80.183967" transform="rotate(-0 75.14 80.183967)">GPT-6 Astra</text>
     </g>
    </g>
    <g id="ytick_6">
     <g id="line2d_12">
      <g>
       <use xlink:href="#m479b5d17c0" x="80.64" y="89.055829" style="stroke: #000000; stroke-width: 0.8"/>
      </g>
     </g>
     <g id="text_10">
      <text style="font-size: 7px; font-family: 'DejaVu Sans'; text-anchor: end" x="75.14" y="91.715282" transform="rotate(-0 75.14 91.715282)">DeepSeek V4.1 Flash</text>
     </g>
    </g>
    <g id="ytick_7">
     <g id="line2d_13">
      <g>
       <use xlink:href="#m479b5d17c0" x="80.64" y="100.587143" style="stroke: #000000; stroke-width: 0.8"/>
      </g>
     </g>
     <g id="text_11">
      <text style="font-size: 7px; font-family: 'DejaVu Sans'; text-anchor: end" x="75.14" y="103.246596" transform="rotate(-0 75.14 103.246596)">Gemini 3.8 Flash</text>
     </g>
    </g>
   </g>
   <g id="line2d_14">
    <path d="M 80.64 71.758857 
L 154.14 71.758857 
" clip-path="url(#p00f5803a24)" style="fill: none; stroke: #bfbfbf; stroke-width: 0.6; stroke-linecap: square"/>
   </g>
   <g id="patch_3">
    <path d="M 80.64 106.3528 
L 80.64 25.6336 
" style="fill: none; stroke: #000000; stroke-width: 0.65; stroke-linejoin: miter; stroke-linecap: square"/>
   </g>
   <g id="patch_4">
    <path d="M 80.64 106.3528 
L 154.14 106.3528 
" style="fill: none; stroke: #000000; stroke-width: 0.65; stroke-linejoin: miter; stroke-linecap: square"/>
   </g>
   <g id="line2d_15">
    <defs>
     <path id="m1c62a7f393" d="M 0 1.4 
C 0.371284 1.4 0.727412 1.252487 0.989949 0.989949 
C 1.252487 0.727412 1.4 0.371284 1.4 0 
C 1.4 -0.371284 1.252487 -0.727412 0.989949 -0.989949 
C 0.727412 -1.252487 0.371284 -1.4 0 -1.4 
C -0.371284 -1.4 -0.727412 -1.252487 -0.989949 -0.989949 
C -1.252487 -0.727412 -1.4 -0.371284 -1.4 0 
C -1.4 0.371284 -1.252487 0.727412 -0.989949 0.989949 
C -0.727412 1.252487 -0.371284 1.4 0 1.4 
z
" style="stroke: #9c9c9c; stroke-width: 0.75"/>
    </defs>
    <g clip-path="url(#p00f5803a24)">
     <use xlink:href="#m1c62a7f393" x="143.785894" y="28.516429" style="fill: #9c9c9c; stroke: #9c9c9c; stroke-width: 0.75"/>
    </g>
   </g>
   <g id="line2d_16">
    <defs>
     <path id="m2a9383504a" d="M -0 1.979899 
L 1.979899 0 
L 0 -1.979899 
L -1.979899 -0 
z
" style="stroke: #9c9c9c; stroke-width: 0.75; stroke-linejoin: miter"/>
    </defs>
    <g clip-path="url(#p00f5803a24)">
     <use xlink:href="#m2a9383504a" x="140.406265" y="34.282086" style="fill: #9c9c9c; stroke: #9c9c9c; stroke-width: 0.75; stroke-linejoin: miter"/>
    </g>
   </g>
   <g id="line2d_17">
    <defs>
     <path id="meaa6b8260e" d="M 0 1.4 
C 0.371284 1.4 0.727412 1.252487 0.989949 0.989949 
C 1.252487 0.727412 1.4 0.371284 1.4 0 
C 1.4 -0.371284 1.252487 -0.727412 0.989949 -0.989949 
C 0.727412 -1.252487 0.371284 -1.4 0 -1.4 
C -0.371284 -1.4 -0.727412 -1.252487 -0.989949 -0.989949 
C -1.252487 -0.727412 -1.4 -0.371284 -1.4 0 
C -1.4 0.371284 -1.252487 0.727412 -0.989949 0.989949 
C -0.727412 1.252487 -0.371284 1.4 0 1.4 
z
" style="stroke: #454545; stroke-width: 0.75"/>
    </defs>
    <g clip-path="url(#p00f5803a24)">
     <use xlink:href="#meaa6b8260e" x="132.132458" y="40.047743" style="fill: #454545; stroke: #454545; stroke-width: 0.75"/>
    </g>
   </g>
   <g id="line2d_18">
    <defs>
     <path id="mf63e956edd" d="M -0 1.979899 
L 1.979899 0 
L 0 -1.979899 
L -1.979899 -0 
z
" style="stroke: #454545; stroke-width: 0.75; stroke-linejoin: miter"/>
    </defs>
    <g clip-path="url(#p00f5803a24)">
     <use xlink:href="#mf63e956edd" x="120.130667" y="45.8134" style="fill: #454545; stroke: #454545; stroke-width: 0.75; stroke-linejoin: miter"/>
    </g>
   </g>
   <g id="line2d_19">
    <defs>
     <path id="m7382e6e891" d="M 0 1.4 
C 0.371284 1.4 0.727412 1.252487 0.989949 0.989949 
C 1.252487 0.727412 1.4 0.371284 1.4 0 
C 1.4 -0.371284 1.252487 -0.727412 0.989949 -0.989949 
C 0.727412 -1.252487 0.371284 -1.4 0 -1.4 
C -0.371284 -1.4 -0.727412 -1.252487 -0.989949 -0.989949 
C -1.252487 -0.727412 -1.4 -0.371284 -1.4 0 
C -1.4 0.371284 -1.252487 0.727412 -0.989949 0.989949 
C -0.727412 1.252487 -0.371284 1.4 0 1.4 
z
" style="stroke: #7e7061; stroke-width: 0.75"/>
    </defs>
    <g clip-path="url(#p00f5803a24)">
     <use xlink:href="#m7382e6e891" x="146.195538" y="51.579057" style="fill: #7e7061; stroke: #7e7061; stroke-width: 0.75"/>
    </g>
   </g>
   <g id="line2d_20">
    <defs>
     <path id="m0fd373c2ed" d="M -0 1.979899 
L 1.979899 0 
L 0 -1.979899 
L -1.979899 -0 
z
" style="stroke: #7e7061; stroke-width: 0.75; stroke-linejoin: miter"/>
    </defs>
    <g clip-path="url(#p00f5803a24)">
     <use xlink:href="#m0fd373c2ed" x="138.763102" y="57.344714" style="fill: #7e7061; stroke: #7e7061; stroke-width: 0.75; stroke-linejoin: miter"/>
    </g>
   </g>
   <g id="line2d_21">
    <defs>
     <path id="ma47495bdc5" d="M 0 1.4 
C 0.371284 1.4 0.727412 1.252487 0.989949 0.989949 
C 1.252487 0.727412 1.4 0.371284 1.4 0 
C 1.4 -0.371284 1.252487 -0.727412 0.989949 -0.989949 
C 0.727412 -1.252487 0.371284 -1.4 0 -1.4 
C -0.371284 -1.4 -0.727412 -1.252487 -0.989949 -0.989949 
C -1.252487 -0.727412 -1.4 -0.371284 -1.4 0 
C -1.4 0.371284 -1.252487 0.727412 -0.989949 0.989949 
C -0.727412 1.252487 -0.371284 1.4 0 1.4 
z
" style="stroke: #666666; stroke-width: 0.75"/>
    </defs>
    <g clip-path="url(#p00f5803a24)">
     <use xlink:href="#ma47495bdc5" x="91.666286" y="63.110371" style="fill: #666666; stroke: #666666; stroke-width: 0.75"/>
    </g>
   </g>
   <g id="line2d_22">
    <defs>
     <path id="m05f655ef84" d="M -0 1.979899 
L 1.979899 0 
L 0 -1.979899 
L -1.979899 -0 
z
" style="stroke: #666666; stroke-width: 0.75; stroke-linejoin: miter"/>
    </defs>
    <g clip-path="url(#p00f5803a24)">
     <use xlink:href="#m05f655ef84" x="95.43868" y="68.876029" style="fill: #666666; stroke: #666666; stroke-width: 0.75; stroke-linejoin: miter"/>
    </g>
   </g>
   <g id="line2d_23">
    <defs>
     <path id="m9aa2e31856" d="M 0 1.4 
C 0.371284 1.4 0.727412 1.252487 0.989949 0.989949 
C 1.252487 0.727412 1.4 0.371284 1.4 0 
C 1.4 -0.371284 1.252487 -0.727412 0.989949 -0.989949 
C 0.727412 -1.252487 0.371284 -1.4 0 -1.4 
C -0.371284 -1.4 -0.727412 -1.252487 -0.989949 -0.989949 
C -1.252487 -0.727412 -1.4 -0.371284 -1.4 0 
C -1.4 0.371284 -1.252487 0.727412 -0.989949 0.989949 
C -0.727412 1.252487 -0.371284 1.4 0 1.4 
z
" style="stroke: #0072b2; stroke-width: 0.75"/>
    </defs>
    <g clip-path="url(#p00f5803a24)">
     <use xlink:href="#m9aa2e31856" x="91.449829" y="73.373241" style="fill: #ffffff; stroke: #0072b2; stroke-width: 0.75"/>
    </g>
   </g>
   <g id="line2d_24">
    <defs>
     <path id="mbab58719a2" d="M 0 1.4 
C 0.371284 1.4 0.727412 1.252487 0.989949 0.989949 
C 1.252487 0.727412 1.4 0.371284 1.4 0 
C 1.4 -0.371284 1.252487 -0.727412 0.989949 -0.989949 
C 0.727412 -1.252487 0.371284 -1.4 0 -1.4 
C -0.371284 -1.4 -0.727412 -1.252487 -0.989949 -0.989949 
C -1.252487 -0.727412 -1.4 -0.371284 -1.4 0 
C -1.4 0.371284 -1.252487 0.727412 -0.989949 0.989949 
C -0.727412 1.252487 -0.371284 1.4 0 1.4 
z
" style="stroke: #0072b2; stroke-width: 0.75"/>
    </defs>
    <g clip-path="url(#p00f5803a24)">
     <use xlink:href="#mbab58719a2" x="89.465466" y="75.91013" style="fill: #0072b2; stroke: #0072b2; stroke-width: 0.75"/>
    </g>
   </g>
   <g id="line2d_25">
    <defs>
     <path id="m13b34caa1e" d="M -0 1.979899 
L 1.979899 0 
L 0 -1.979899 
L -1.979899 -0 
z
" style="stroke: #0072b2; stroke-width: 0.75; stroke-linejoin: miter"/>
    </defs>
    <g clip-path="url(#p00f5803a24)">
     <use xlink:href="#m13b34caa1e" x="95.945549" y="79.138898" style="fill: #ffffff; stroke: #0072b2; stroke-width: 0.75; stroke-linejoin: miter"/>
    </g>
   </g>
   <g id="line2d_26">
    <defs>
     <path id="m47260be453" d="M -0 1.979899 
L 1.979899 0 
L 0 -1.979899 
L -1.979899 -0 
z
" style="stroke: #0072b2; stroke-width: 0.75; stroke-linejoin: miter"/>
    </defs>
    <g clip-path="url(#p00f5803a24)">
     <use xlink:href="#m47260be453" x="91.151634" y="81.675787" style="fill: #0072b2; stroke: #0072b2; stroke-width: 0.75; stroke-linejoin: miter"/>
    </g>
   </g>
   <g id="line2d_27">
    <defs>
     <path id="ma00720c67b" d="M 0 1.4 
C 0.371284 1.4 0.727412 1.252487 0.989949 0.989949 
C 1.252487 0.727412 1.4 0.371284 1.4 0 
C 1.4 -0.371284 1.252487 -0.727412 0.989949 -0.989949 
C 0.727412 -1.252487 0.371284 -1.4 0 -1.4 
C -0.371284 -1.4 -0.727412 -1.252487 -0.989949 -0.989949 
C -1.252487 -0.727412 -1.4 -0.371284 -1.4 0 
C -1.4 0.371284 -1.252487 0.727412 -0.989949 0.989949 
C -0.727412 1.252487 -0.371284 1.4 0 1.4 
z
" style="stroke: #d55e00; stroke-width: 0.75"/>
    </defs>
    <g clip-path="url(#p00f5803a24)">
     <use xlink:href="#ma00720c67b" x="90.634015" y="84.904555" style="fill: #ffffff; stroke: #d55e00; stroke-width: 0.75"/>
    </g>
   </g>
   <g id="line2d_28">
    <defs>
     <path id="m8cee50e6a4" d="M 0 1.4 
C 0.371284 1.4 0.727412 1.252487 0.989949 0.989949 
C 1.252487 0.727412 1.4 0.371284 1.4 0 
C 1.4 -0.371284 1.252487 -0.727412 0.989949 -0.989949 
C 0.727412 -1.252487 0.371284 -1.4 0 -1.4 
C -0.371284 -1.4 -0.727412 -1.252487 -0.989949 -0.989949 
C -1.252487 -0.727412 -1.4 -0.371284 -1.4 0 
C -1.4 0.371284 -1.252487 0.727412 -0.989949 0.989949 
C -0.727412 1.252487 -0.371284 1.4 0 1.4 
z
" style="stroke: #d55e00; stroke-width: 0.75"/>
    </defs>
    <g clip-path="url(#p00f5803a24)">
     <use xlink:href="#m8cee50e6a4" x="90.186553" y="87.441445" style="fill: #d55e00; stroke: #d55e00; stroke-width: 0.75"/>
    </g>
   </g>
   <g id="line2d_29">
    <defs>
     <path id="m17bb384307" d="M -0 1.979899 
L 1.979899 0 
L 0 -1.979899 
L -1.979899 -0 
z
" style="stroke: #d55e00; stroke-width: 0.75; stroke-linejoin: miter"/>
    </defs>
    <g clip-path="url(#p00f5803a24)">
     <use xlink:href="#m17bb384307" x="100.618948" y="90.670213" style="fill: #ffffff; stroke: #d55e00; stroke-width: 0.75; stroke-linejoin: miter"/>
    </g>
   </g>
   <g id="line2d_30">
    <defs>
     <path id="m3273ab817b" d="M -0 1.979899 
L 1.979899 0 
L 0 -1.979899 
L -1.979899 -0 
z
" style="stroke: #d55e00; stroke-width: 0.75; stroke-linejoin: miter"/>
    </defs>
    <g clip-path="url(#p00f5803a24)">
     <use xlink:href="#m3273ab817b" x="93.286673" y="93.207102" style="fill: #d55e00; stroke: #d55e00; stroke-width: 0.75; stroke-linejoin: miter"/>
    </g>
   </g>
   <g id="line2d_31">
    <defs>
     <path id="mcceb342f10" d="M 0 1.4 
C 0.371284 1.4 0.727412 1.252487 0.989949 0.989949 
C 1.252487 0.727412 1.4 0.371284 1.4 0 
C 1.4 -0.371284 1.252487 -0.727412 0.989949 -0.989949 
C 0.727412 -1.252487 0.371284 -1.4 0 -1.4 
C -0.371284 -1.4 -0.727412 -1.252487 -0.989949 -0.989949 
C -1.252487 -0.727412 -1.4 -0.371284 -1.4 0 
C -1.4 0.371284 -1.252487 0.727412 -0.989949 0.989949 
C -0.727412 1.252487 -0.371284 1.4 0 1.4 
z
" style="stroke: #cc79a7; stroke-width: 0.75"/>
    </defs>
    <g clip-path="url(#p00f5803a24)">
     <use xlink:href="#mcceb342f10" x="90.988621" y="96.43587" style="fill: #ffffff; stroke: #cc79a7; stroke-width: 0.75"/>
    </g>
   </g>
   <g id="line2d_32">
    <defs>
     <path id="m2e758fa322" d="M 0 1.4 
C 0.371284 1.4 0.727412 1.252487 0.989949 0.989949 
C 1.252487 0.727412 1.4 0.371284 1.4 0 
C 1.4 -0.371284 1.252487 -0.727412 0.989949 -0.989949 
C 0.727412 -1.252487 0.371284 -1.4 0 -1.4 
C -0.371284 -1.4 -0.727412 -1.252487 -0.989949 -0.989949 
C -1.252487 -0.727412 -1.4 -0.371284 -1.4 0 
C -1.4 0.371284 -1.252487 0.727412 -0.989949 0.989949 
C -0.727412 1.252487 -0.371284 1.4 0 1.4 
z
" style="stroke: #cc79a7; stroke-width: 0.75"/>
    </defs>
    <g clip-path="url(#p00f5803a24)">
     <use xlink:href="#m2e758fa322" x="90.738819" y="98.972759" style="fill: #cc79a7; stroke: #cc79a7; stroke-width: 0.75"/>
    </g>
   </g>
   <g id="line2d_33">
    <defs>
     <path id="mb2ea87e169" d="M -0 1.979899 
L 1.979899 0 
L 0 -1.979899 
L -1.979899 -0 
z
" style="stroke: #cc79a7; stroke-width: 0.75; stroke-linejoin: miter"/>
    </defs>
    <g clip-path="url(#p00f5803a24)">
     <use xlink:href="#mb2ea87e169" x="92.652962" y="102.201527" style="fill: #ffffff; stroke: #cc79a7; stroke-width: 0.75; stroke-linejoin: miter"/>
    </g>
   </g>
   <g id="line2d_34">
    <defs>
     <path id="mb1447f218e" d="M -0 1.979899 
L 1.979899 0 
L 0 -1.979899 
L -1.979899 -0 
z
" style="stroke: #cc79a7; stroke-width: 0.75; stroke-linejoin: miter"/>
    </defs>
    <g clip-path="url(#p00f5803a24)">
     <use xlink:href="#mb1447f218e" x="92.379153" y="104.738416" style="fill: #cc79a7; stroke: #cc79a7; stroke-width: 0.75; stroke-linejoin: miter"/>
    </g>
   </g>
  </g>
  <g id="axes_2">
   <g id="patch_5">
    <path d="M 174.72 106.3528 
L 248.22 106.3528 
L 248.22 25.6336 
L 174.72 25.6336 
z
" style="fill: #ffffff"/>
   </g>
   <g id="matplotlib.axis_3">
    <g id="xtick_4">
     <g id="line2d_35">
      <path d="M 179.043529 106.3528 
L 179.043529 25.6336 
" clip-path="url(#pd994098e8f)" style="fill: none; stroke: #e6e6e6; stroke-width: 0.5; stroke-linecap: square"/>
     </g>
     <g id="line2d_36">
      <g>
       <use xlink:href="#m33e0a5b8f4" x="179.043529" y="106.3528" style="stroke: #000000; stroke-width: 0.8"/>
      </g>
     </g>
     <g id="text_12">
      <text style="font-size: 7px; font-family: 'DejaVu Sans'; text-anchor: middle" x="179.043529" y="117.171706" transform="rotate(-0 179.043529 117.171706)">0.4</text>
     </g>
    </g>
    <g id="xtick_5">
     <g id="line2d_37">
      <path d="M 200.661176 106.3528 
L 200.661176 25.6336 
" clip-path="url(#pd994098e8f)" style="fill: none; stroke: #e6e6e6; stroke-width: 0.5; stroke-linecap: square"/>
     </g>
     <g id="line2d_38">
      <g>
       <use xlink:href="#m33e0a5b8f4" x="200.661176" y="106.3528" style="stroke: #000000; stroke-width: 0.8"/>
      </g>
     </g>
     <g id="text_13">
      <text style="font-size: 7px; font-family: 'DejaVu Sans'; text-anchor: middle" x="200.661176" y="117.171706" transform="rotate(-0 200.661176 117.171706)">0.5</text>
     </g>
    </g>
    <g id="xtick_6">
     <g id="line2d_39">
      <path d="M 222.278824 106.3528 
L 222.278824 25.6336 
" clip-path="url(#pd994098e8f)" style="fill: none; stroke: #e6e6e6; stroke-width: 0.5; stroke-linecap: square"/>
     </g>
     <g id="line2d_40">
      <g>
       <use xlink:href="#m33e0a5b8f4" x="222.278824" y="106.3528" style="stroke: #000000; stroke-width: 0.8"/>
      </g>
     </g>
     <g id="text_14">
      <text style="font-size: 7px; font-family: 'DejaVu Sans'; text-anchor: middle" x="222.278824" y="117.171706" transform="rotate(-0 222.278824 117.171706)">0.6</text>
     </g>
    </g>
    <g id="xtick_7">
     <g id="line2d_41">
      <path d="M 243.896471 106.3528 
L 243.896471 25.6336 
" clip-path="url(#pd994098e8f)" style="fill: none; stroke: #e6e6e6; stroke-width: 0.5; stroke-linecap: square"/>
     </g>
     <g id="line2d_42">
      <g>
       <use xlink:href="#m33e0a5b8f4" x="243.896471" y="106.3528" style="stroke: #000000; stroke-width: 0.8"/>
      </g>
     </g>
     <g id="text_15">
      <text style="font-size: 7px; font-family: 'DejaVu Sans'; text-anchor: middle" x="243.896471" y="117.171706" transform="rotate(-0 243.896471 117.171706)">0.7</text>
     </g>
    </g>
    <g id="text_16">
     <!-- $\mathrm{MAE}_{\mathrm{Req}}$ -->
     <g transform="translate(198.045 127.102488)">
      <text>
       <tspan x="0" y="-0.171875" style="font-size: 7.5px; font-family: 'DejaVu Sans'">M</tspan>
       <tspan x="6.470947" y="-0.171875" style="font-size: 7.5px; font-family: 'DejaVu Sans'">A</tspan>
       <tspan x="11.601562" y="-0.171875" style="font-size: 7.5px; font-family: 'DejaVu Sans'">E</tspan>
       <tspan x="16.416895" y="1.140625" style="font-size: 5.25px; font-family: 'DejaVu Sans'">R</tspan>
       <tspan x="20.064722" y="1.140625" style="font-size: 5.25px; font-family: 'DejaVu Sans'">e</tspan>
       <tspan x="23.294702" y="1.140625" style="font-size: 5.25px; font-family: 'DejaVu Sans'">q</tspan>
      </text>
     </g>
    </g>
   </g>
   <g id="matplotlib.axis_4">
    <g id="ytick_8">
     <g id="line2d_43">
      <g>
       <use xlink:href="#m479b5d17c0" x="174.72" y="31.399257" style="stroke: #000000; stroke-width: 0.8"/>
      </g>
     </g>
    </g>
    <g id="ytick_9">
     <g id="line2d_44">
      <g>
       <use xlink:href="#m479b5d17c0" x="174.72" y="42.930571" style="stroke: #000000; stroke-width: 0.8"/>
      </g>
     </g>
    </g>
    <g id="ytick_10">
     <g id="line2d_45">
      <g>
       <use xlink:href="#m479b5d17c0" x="174.72" y="54.461886" style="stroke: #000000; stroke-width: 0.8"/>
      </g>
     </g>
    </g>
    <g id="ytick_11">
     <g id="line2d_46">
      <g>
       <use xlink:href="#m479b5d17c0" x="174.72" y="65.9932" style="stroke: #000000; stroke-width: 0.8"/>
      </g>
     </g>
    </g>
    <g id="ytick_12">
     <g id="line2d_47">
      <g>
       <use xlink:href="#m479b5d17c0" x="174.72" y="77.524514" style="stroke: #000000; stroke-width: 0.8"/>
      </g>
     </g>
    </g>
    <g id="ytick_13">
     <g id="line2d_48">
      <g>
       <use xlink:href="#m479b5d17c0" x="174.72" y="89.055829" style="stroke: #000000; stroke-width: 0.8"/>
      </g>
     </g>
    </g>
    <g id="ytick_14">
     <g id="line2d_49">
      <g>
       <use xlink:href="#m479b5d17c0" x="174.72" y="100.587143" style="stroke: #000000; stroke-width: 0.8"/>
      </g>
     </g>
    </g>
   </g>
   <g id="line2d_50">
    <path d="M 174.72 71.758857 
L 248.22 71.758857 
" clip-path="url(#pd994098e8f)" style="fill: none; stroke: #bfbfbf; stroke-width: 0.6; stroke-linecap: square"/>
   </g>
   <g id="patch_6">
    <path d="M 174.72 106.3528 
L 174.72 25.6336 
" style="fill: none; stroke: #000000; stroke-width: 0.65; stroke-linejoin: miter; stroke-linecap: square"/>
   </g>
   <g id="patch_7">
    <path d="M 174.72 106.3528 
L 248.22 106.3528 
" style="fill: none; stroke: #000000; stroke-width: 0.65; stroke-linejoin: miter; stroke-linecap: square"/>
   </g>
   <g id="line2d_51">
    <g clip-path="url(#pd994098e8f)">
     <use xlink:href="#m1c62a7f393" x="221.764636" y="28.516429" style="fill: #9c9c9c; stroke: #9c9c9c; stroke-width: 0.75"/>
    </g>
   </g>
   <g id="line2d_52">
    <g clip-path="url(#pd994098e8f)">
     <use xlink:href="#m2a9383504a" x="232.462329" y="34.282086" style="fill: #9c9c9c; stroke: #9c9c9c; stroke-width: 0.75; stroke-linejoin: miter"/>
    </g>
   </g>
   <g id="line2d_53">
    <g clip-path="url(#pd994098e8f)">
     <use xlink:href="#meaa6b8260e" x="212.967233" y="40.047743" style="fill: #454545; stroke: #454545; stroke-width: 0.75"/>
    </g>
   </g>
   <g id="line2d_54">
    <g clip-path="url(#pd994098e8f)">
     <use xlink:href="#mf63e956edd" x="230.136453" y="45.8134" style="fill: #454545; stroke: #454545; stroke-width: 0.75; stroke-linejoin: miter"/>
    </g>
   </g>
   <g id="line2d_55">
    <g clip-path="url(#pd994098e8f)">
     <use xlink:href="#m7382e6e891" x="228.292053" y="51.579057" style="fill: #7e7061; stroke: #7e7061; stroke-width: 0.75"/>
    </g>
   </g>
   <g id="line2d_56">
    <g clip-path="url(#pd994098e8f)">
     <use xlink:href="#m0fd373c2ed" x="232.185716" y="57.344714" style="fill: #7e7061; stroke: #7e7061; stroke-width: 0.75; stroke-linejoin: miter"/>
    </g>
   </g>
   <g id="line2d_57">
    <g clip-path="url(#pd994098e8f)">
     <use xlink:href="#ma47495bdc5" x="192.235757" y="63.110371" style="fill: #666666; stroke: #666666; stroke-width: 0.75"/>
    </g>
   </g>
   <g id="line2d_58">
    <g clip-path="url(#pd994098e8f)">
     <use xlink:href="#m05f655ef84" x="216.773745" y="68.876029" style="fill: #666666; stroke: #666666; stroke-width: 0.75; stroke-linejoin: miter"/>
    </g>
   </g>
   <g id="line2d_59">
    <g clip-path="url(#pd994098e8f)">
     <use xlink:href="#m9aa2e31856" x="206.443688" y="73.373241" style="fill: #ffffff; stroke: #0072b2; stroke-width: 0.75"/>
    </g>
   </g>
   <g id="line2d_60">
    <g clip-path="url(#pd994098e8f)">
     <use xlink:href="#mbab58719a2" x="206.086146" y="75.91013" style="fill: #0072b2; stroke: #0072b2; stroke-width: 0.75"/>
    </g>
   </g>
   <g id="line2d_61">
    <g clip-path="url(#pd994098e8f)">
     <use xlink:href="#m13b34caa1e" x="221.572397" y="79.138898" style="fill: #ffffff; stroke: #0072b2; stroke-width: 0.75; stroke-linejoin: miter"/>
    </g>
   </g>
   <g id="line2d_62">
    <g clip-path="url(#pd994098e8f)">
     <use xlink:href="#m47260be453" x="223.750929" y="81.675787" style="fill: #0072b2; stroke: #0072b2; stroke-width: 0.75; stroke-linejoin: miter"/>
    </g>
   </g>
   <g id="line2d_63">
    <g clip-path="url(#pd994098e8f)">
     <use xlink:href="#ma00720c67b" x="207.701274" y="84.904555" style="fill: #ffffff; stroke: #d55e00; stroke-width: 0.75"/>
    </g>
   </g>
   <g id="line2d_64">
    <g clip-path="url(#pd994098e8f)">
     <use xlink:href="#m8cee50e6a4" x="204.874418" y="87.441445" style="fill: #d55e00; stroke: #d55e00; stroke-width: 0.75"/>
    </g>
   </g>
   <g id="line2d_65">
    <g clip-path="url(#pd994098e8f)">
     <use xlink:href="#m17bb384307" x="232.990474" y="90.670213" style="fill: #ffffff; stroke: #d55e00; stroke-width: 0.75; stroke-linejoin: miter"/>
    </g>
   </g>
   <g id="line2d_66">
    <g clip-path="url(#pd994098e8f)">
     <use xlink:href="#m3273ab817b" x="224.293977" y="93.207102" style="fill: #d55e00; stroke: #d55e00; stroke-width: 0.75; stroke-linejoin: miter"/>
    </g>
   </g>
   <g id="line2d_67">
    <g clip-path="url(#pd994098e8f)">
     <use xlink:href="#mcceb342f10" x="199.816739" y="96.43587" style="fill: #ffffff; stroke: #cc79a7; stroke-width: 0.75"/>
    </g>
   </g>
   <g id="line2d_68">
    <g clip-path="url(#pd994098e8f)">
     <use xlink:href="#m2e758fa322" x="200.521113" y="98.972759" style="fill: #cc79a7; stroke: #cc79a7; stroke-width: 0.75"/>
    </g>
   </g>
   <g id="line2d_69">
    <g clip-path="url(#pd994098e8f)">
     <use xlink:href="#mb2ea87e169" x="226.460407" y="102.201527" style="fill: #ffffff; stroke: #cc79a7; stroke-width: 0.75; stroke-linejoin: miter"/>
    </g>
   </g>
   <g id="line2d_70">
    <g clip-path="url(#pd994098e8f)">
     <use xlink:href="#mb1447f218e" x="227.209237" y="104.738416" style="fill: #cc79a7; stroke: #cc79a7; stroke-width: 0.75; stroke-linejoin: miter"/>
    </g>
   </g>
  </g>
  <g id="legend_1">
   <g id="line2d_71">
    <defs>
     <path id="mfe335496cd" d="M 0 1.75 
C 0.464105 1.75 0.909265 1.565609 1.237437 1.237437 
C 1.565609 0.909265 1.75 0.464105 1.75 0 
C 1.75 -0.464105 1.565609 -0.909265 1.237437 -1.237437 
C 0.909265 -1.565609 0.464105 -1.75 0 -1.75 
C -0.464105 -1.75 -0.909265 -1.565609 -1.237437 -1.237437 
C -1.565609 -0.909265 -1.75 -0.464105 -1.75 0 
C -1.75 0.464105 -1.565609 0.909265 -1.237437 1.237437 
C -0.909265 1.565609 -0.464105 1.75 0 1.75 
z
" style="stroke: #404040"/>
    </defs>
    <g>
     <use xlink:href="#mfe335496cd" x="38.102969" y="7.168906" style="fill: #404040; stroke: #404040"/>
    </g>
   </g>
   <g id="text_17">
    <text style="font-size: 7px; font-family: 'DejaVu Sans'; text-anchor: start" x="47.902969" y="9.618906" transform="rotate(-0 47.902969 9.618906)">4 cores</text>
   </g>
   <g id="line2d_72">
    <defs>
     <path id="ma67e5948ec" d="M -0 2.474874 
L 2.474874 0 
L 0 -2.474874 
L -2.474874 -0 
z
" style="stroke: #404040; stroke-linejoin: miter"/>
    </defs>
    <g>
     <use xlink:href="#ma67e5948ec" x="85.637344" y="7.168906" style="fill: #404040; stroke: #404040; stroke-linejoin: miter"/>
    </g>
   </g>
   <g id="text_18">
    <text style="font-size: 7px; font-family: 'DejaVu Sans'; text-anchor: start" x="95.437344" y="9.618906" transform="rotate(-0 95.437344 9.618906)">8 cores</text>
   </g>
   <g id="line2d_73">
    <defs>
     <path id="m293f29b108" d="M 0 1.75 
C 0.464105 1.75 0.909265 1.565609 1.237437 1.237437 
C 1.565609 0.909265 1.75 0.464105 1.75 0 
C 1.75 -0.464105 1.565609 -0.909265 1.237437 -1.237437 
C 0.909265 -1.565609 0.464105 -1.75 0 -1.75 
C -0.464105 -1.75 -0.909265 -1.565609 -1.237437 -1.237437 
C -1.565609 -0.909265 -1.75 -0.464105 -1.75 0 
C -1.75 0.464105 -1.565609 0.909265 -1.237437 1.237437 
C -0.909265 1.565609 -0.464105 1.75 0 1.75 
z
" style="stroke: #404040"/>
    </defs>
    <g>
     <use xlink:href="#m293f29b108" x="133.171719" y="7.168906" style="fill: #ffffff; stroke: #404040"/>
    </g>
   </g>
   <g id="text_19">
    <text style="font-size: 7px; font-family: 'DejaVu Sans'; text-anchor: start" x="142.971719" y="9.618906" transform="rotate(-0 142.971719 9.618906)">After 10</text>
   </g>
   <g id="line2d_74">
    <g>
     <use xlink:href="#mfe335496cd" x="183.159375" y="7.168906" style="fill: #404040; stroke: #404040"/>
    </g>
   </g>
   <g id="text_20">
    <text style="font-size: 7px; font-family: 'DejaVu Sans'; text-anchor: start" x="192.959375" y="9.618906" transform="rotate(-0 192.959375 9.618906)">After 15</text>
   </g>
  </g>
 </g>
 <defs>
  <clipPath id="p00f5803a24">
   <rect x="80.64" y="25.6336" width="73.5" height="80.7192"/>
  </clipPath>
  <clipPath id="pd994098e8f">
   <rect x="174.72" y="25.6336" width="73.5" height="80.7192"/>
  </clipPath>
 </defs>
</svg>
